<svg width="694" height="59" viewBox="0 0 694 59" fill="none" xmlns="http://www.w3.org/2000/svg">
<path d="M64.828 0.199996L42.4 59H36.1L31.648 8.264L9.304 59H2.836L0.988001 0.199996H7.708L7.792 50.096L29.632 0.199996H36.184L40.3 50.096L58.024 0.199996H64.828ZM173.281 45.224H149.593L142.873 59H135.733L165.973 0.199996H171.937L181.513 59H175.213L173.281 45.224ZM172.525 40.1L167.905 7.676L152.113 40.1H172.525ZM280.302 0.199996H286.518L277.11 53.792H305.754L304.83 59H269.97L280.302 0.199996ZM405.219 0.199996H411.435L402.027 53.792H430.671L429.747 59H394.887L405.219 0.199996ZM530.22 0.199996H564.156L563.316 5.408H535.512L532.068 25.4H556.848L555.924 30.692H531.06L527.028 53.792H554.748L553.824 59H519.888L530.22 0.199996ZM667.72 5.24H649.324L650.248 0.199996H693.088L692.164 5.24H673.936L664.444 59H658.228L667.72 5.24Z" fill="#516FAE"/>
</svg>
