<svg width="591" height="87" viewBox="0 0 591 87" fill="none" xmlns="http://www.w3.org/2000/svg">
<rect width="591" height="87" fill="#233923"/>
<g filter="url(#filter0_d_0_1)">
<path fill-rule="evenodd" clip-rule="evenodd" d="M483.822 11L550.562 11H587L574.247 71H550.562H485.154C478.779 76.0112 470.738 79 462 79C453.262 79 445.221 76.0112 438.846 71L40.4375 71H4L16.7531 11H40.4375L440.178 11C446.325 6.59379 453.86 4 462 4C470.14 4 477.675 6.59379 483.822 11Z" fill="#EEEEEE"/>
<path d="M486.41 10.8113C479.328 5.35626 470.623 2.43059 461.684 2.50125C452.745 2.57191 444.087 5.63482 437.093 11.2012" stroke="#CCCCCC" stroke-width="5"/>
<path d="M17 10H438" stroke="#CCCCCC" stroke-width="5"/>
<path d="M485 10H587" stroke="#CCCCCC" stroke-width="5"/>
</g>
<defs>
<filter id="filter0_d_0_1" x="0" y="0" width="591" height="87" filterUnits="userSpaceOnUse" color-interpolation-filters="sRGB">
<feFlood flood-opacity="0" result="BackgroundImageFix"/>
<feColorMatrix in="SourceAlpha" type="matrix" values="0 0 0 0 0 0 0 0 0 0 0 0 0 0 0 0 0 0 127 0" result="hardAlpha"/>
<feOffset dy="4"/>
<feGaussianBlur stdDeviation="2"/>
<feComposite in2="hardAlpha" operator="out"/>
<feColorMatrix type="matrix" values="0 0 0 0 0 0 0 0 0 0 0 0 0 0 0 0 0 0 0.25 0"/>
<feBlend mode="normal" in2="BackgroundImageFix" result="effect1_dropShadow_0_1"/>
<feBlend mode="normal" in="SourceGraphic" in2="effect1_dropShadow_0_1" result="shape"/>
</filter>
</defs>
</svg>
